# xmcd
#
# Track frame offsets: 
#        150
#        19359
#        44943
#
# Disc length: 1060 seconds
#
# Revision: 0
# Processed by: cddbd v1.5.2PL0 Copyright (c) Steve Scherf et al.
# Submitted via: ExactAudioCopy v0.99pb5
#
DISCID=28042203
DTITLE=Anat - Without You
DYEAR=1996
DGENRE=Eurodance
TTITLE0=Without You (Radio Edit)
TTITLE1=Without You (Original Version)
TTITLE2=Without You (Autumn Mix)
EXTD=
EXTT0=
EXTT1=
EXTT2=
PLAYORDER=
